<svg xmlns="http://www.w3.org/2000/svg" xmlns:xlink="http://www.w3.org/1999/xlink" version="1.1" x="0px" y="0px" viewBox="0 0 72 90" style="enable-background:new 0 0 72 72;" xml:space="preserve"><g><g><path d="M63,60H9c-3.31,0-6-2.69-6-6V18c0-3.31,2.69-6,6-6h54c3.31,0,6,2.69,6,6v36C69,57.31,66.31,60,63,60z M9,14    c-2.21,0-4,1.79-4,4v36c0,2.21,1.79,4,4,4h54c2.21,0,4-1.79,4-4V18c0-2.21-1.79-4-4-4H9z"/></g><g><path d="M60,56H12c-2.76,0-5-2.24-5-5V32c0-0.55,0.45-1,1-1s1,0.45,1,1v19c0,1.65,1.35,3,3,3h48c1.65,0,3-1.35,3-3V21    c0-1.65-1.35-3-3-3H37c-0.55,0-1-0.45-1-1s0.45-1,1-1h23c2.76,0,5,2.24,5,5v30C65,53.76,62.76,56,60,56z"/></g><g><path d="M50,52c-0.15,0-0.3-0.03-0.43-0.1C49.14,51.69,39,46.72,39,38c0-3.31,2.69-6,6-6c2.08,0,3.92,1.07,5,2.69    c1.08-1.62,2.92-2.69,5-2.69c3.31,0,6,2.69,6,6c0,8.72-10.14,13.69-10.57,13.9C50.3,51.97,50.15,52,50,52z M45,34    c-2.21,0-4,1.79-4,4c0,6.54,7.15,10.86,9,11.87c1.85-1.01,9-5.35,9-11.87c0-2.21-1.79-4-4-4s-4,1.79-4,4c0,0.55-0.45,1-1,1    s-1-0.45-1-1C49,35.79,47.21,34,45,34z"/></g><g><g><path d="M26,35c-0.02,0-0.03,0-0.05,0c-0.45-0.02-0.83-0.33-0.93-0.77l-4-17c-0.13-0.54,0.21-1.08,0.74-1.2     c0.54-0.13,1.08,0.21,1.2,0.74l3.19,13.57l2.89-8.66c0.13-0.38,0.47-0.65,0.88-0.68c0.4-0.03,0.78,0.19,0.97,0.55L32.62,25H49     c0.55,0,1,0.45,1,1s-0.45,1-1,1H32c-0.38,0-0.73-0.21-0.89-0.55l-0.92-1.84l-3.24,9.71C26.81,34.73,26.43,35,26,35z"/></g><g><path d="M19,31c-0.38,0-0.72-0.21-0.89-0.55L16.38,27H8c-0.55,0-1-0.45-1-1s0.45-1,1-1h9c0.38,0,0.73,0.21,0.89,0.55l0.76,1.51     l2.37-10.29c0.12-0.54,0.67-0.87,1.2-0.75c0.54,0.12,0.87,0.66,0.75,1.2l-3,13c-0.1,0.41-0.44,0.72-0.86,0.77     C19.08,31,19.04,31,19,31z"/></g></g><g><path d="M34,52h-3c-0.55,0-1-0.45-1-1s0.45-1,1-1h3c0.55,0,1,0.45,1,1S34.55,52,34,52z"/></g><g><path d="M34,49h-3c-0.55,0-1-0.45-1-1s0.45-1,1-1h3c0.55,0,1,0.45,1,1S34.55,49,34,49z"/></g><g><path d="M34,46h-3c-0.55,0-1-0.45-1-1s0.45-1,1-1h3c0.55,0,1,0.45,1,1S34.55,46,34,46z"/></g><g><path d="M34,43h-3c-0.55,0-1-0.45-1-1s0.45-1,1-1h3c0.55,0,1,0.45,1,1S34.55,43,34,43z"/></g><g><path d="M34,40h-3c-0.55,0-1-0.45-1-1s0.45-1,1-1h3c0.55,0,1,0.45,1,1S34.55,40,34,40z"/></g><g><path d="M28,52h-3c-0.55,0-1-0.45-1-1s0.45-1,1-1h3c0.55,0,1,0.45,1,1S28.55,52,28,52z"/></g><g><path d="M28,49h-3c-0.55,0-1-0.45-1-1s0.45-1,1-1h3c0.55,0,1,0.45,1,1S28.55,49,28,49z"/></g><g><path d="M28,46h-3c-0.55,0-1-0.45-1-1s0.45-1,1-1h3c0.55,0,1,0.45,1,1S28.55,46,28,46z"/></g><g><path d="M22,52h-3c-0.55,0-1-0.45-1-1s0.45-1,1-1h3c0.55,0,1,0.45,1,1S22.55,52,22,52z"/></g><g><path d="M22,49h-3c-0.55,0-1-0.45-1-1s0.45-1,1-1h3c0.55,0,1,0.45,1,1S22.55,49,22,49z"/></g></g><text x="0" y="87" fill="#000000" font-size="5px" font-weight="bold" font-family="'Helvetica Neue', Helvetica, Arial-Unicode, Arial, Sans-serif">Created by I Putu Dicky Adi Pranatha</text><text x="0" y="92" fill="#000000" font-size="5px" font-weight="bold" font-family="'Helvetica Neue', Helvetica, Arial-Unicode, Arial, Sans-serif">from the Noun Project</text></svg>